<svg width="483" height="482" viewBox="0 0 483 482" fill="" xmlns="http://www.w3.org/2000/svg">
<path d="M241.287 0C108.239 0 0 107.932 0 240.613C0 373.295 108.239 481.227 241.287 481.227C374.334 481.227 482.574 373.28 482.574 240.613C482.574 107.946 374.334 0 241.287 0ZM260.823 27.5028C305.27 31.5155 345.85 49.1039 378.362 76.0502C380.807 78.0858 379.885 82.0545 376.809 82.8161L301.023 101.84C299.353 102.264 297.611 101.532 296.732 100.053L257.147 33.39C255.522 30.6661 257.674 27.2246 260.838 27.5028H260.823ZM117.363 206.33C118.212 205.832 119.003 205.29 119.765 204.719L145.671 215.41C143.533 223.464 142.376 231.914 142.376 240.628C142.376 248.565 143.343 256.283 145.129 263.693L119.428 274.384C118.637 273.813 117.817 273.256 116.938 272.773L65.052 243.659C62.4306 242.18 62.3866 238.417 64.9934 236.893L117.348 206.345L117.363 206.33ZM119.194 113.629L180.438 129.562L191.26 155.571C176.689 164.124 164.504 176.294 155.952 190.85L129.811 180.072C129.694 179.325 129.547 178.578 129.357 177.831L114.434 118.359C113.716 115.489 116.323 112.896 119.194 113.643V113.629ZM114.434 360.773L129.313 301.462C129.533 300.598 129.679 299.734 129.811 298.87L154.839 288.458C163.26 303.542 175.517 316.195 190.309 325.113L180.13 349.775C179.325 349.907 178.52 350.053 177.714 350.273L119.194 365.489C116.338 366.236 113.716 363.644 114.434 360.773ZM169 240.613C169 200.897 201.424 168.59 241.287 168.59C281.15 168.59 313.573 200.897 313.573 240.613C313.573 280.33 281.15 312.651 241.287 312.651C201.424 312.651 169 280.33 169 240.613ZM289.102 154.282L299.236 129.723C299.339 129.694 299.441 129.679 299.558 129.665L363.263 113.673C366.119 112.955 368.711 115.547 367.979 118.417L352.865 177.729C352.748 178.183 352.675 178.622 352.587 179.076L326.183 190.06C317.205 175.137 304.391 162.762 289.102 154.297V154.282ZM327.017 289.732L352.646 300.305C352.733 300.73 352.807 301.155 352.909 301.579L367.979 360.73C368.711 363.585 366.119 366.192 363.263 365.474L299.558 349.497C299.368 349.453 299.192 349.424 299.002 349.38L289.571 326.695C305.138 317.967 318.099 305.167 327.017 289.746V289.732ZM365.299 272.729C363.995 273.461 362.765 274.296 361.637 275.219L337.108 265.099C339.114 257.264 340.198 249.063 340.198 240.628C340.198 231.592 338.953 222.864 336.668 214.546L361.681 204.148C362.692 204.953 363.761 205.715 364.903 206.374L417.463 236.893C420.07 238.417 420.041 242.195 417.405 243.659L365.313 272.744L365.299 272.729ZM244.582 64.4076L275.731 116.865L264.265 144.676C256.884 142.918 249.195 141.966 241.287 141.966C232.485 141.966 223.948 143.138 215.82 145.291L204.997 119.311L237.875 64.393C239.383 61.8594 243.059 61.8741 244.567 64.393L244.582 64.4076ZM104.402 75.9037C136.87 49.0453 177.363 31.5302 221.722 27.5175C224.885 27.2246 227.038 30.6808 225.412 33.4047L185.285 100.419C184.392 101.898 182.635 102.616 180.965 102.191L105.925 82.6696C102.865 81.8788 101.957 77.9247 104.402 75.9037ZM27.5468 220.755C31.6766 176.25 49.5286 135.654 76.841 103.216C78.8766 100.785 82.8307 101.722 83.5922 104.798L102.66 180.804C103.084 182.488 102.338 184.246 100.844 185.11L33.39 224.46C30.6515 226.056 27.2392 223.889 27.5321 220.74L27.5468 220.755ZM81.3809 383.224C51.4324 349.892 31.7938 307.159 27.5175 260.091C27.2392 256.971 30.5782 254.804 33.3168 256.342L100.741 294.184C102.279 295.048 103.04 296.82 102.616 298.533L81.5566 382.448C81.498 382.711 81.4395 382.96 81.3809 383.224ZM102.44 403.683C100.038 401.647 100.932 397.737 103.992 396.946C124.305 391.689 180.965 376.956 180.965 376.956C182.635 376.517 184.392 377.234 185.285 378.728C185.285 378.728 215.849 429.736 226.803 447.968C228.429 450.692 226.305 454.119 223.142 453.856C177.333 450.019 135.566 431.771 102.425 403.697L102.44 403.683ZM237.889 414.739L206.286 361.974C205.832 361.213 205.334 360.495 204.807 359.792L214.765 335.643C223.215 337.986 232.09 339.275 241.287 339.275C249.385 339.275 257.25 338.279 264.792 336.434L275.614 362.458L244.582 414.725C243.074 417.258 239.412 417.273 237.889 414.725V414.739ZM259.417 453.841C256.254 454.104 254.116 450.678 255.741 447.954C266.578 429.78 296.717 379.065 296.717 379.065C297.596 377.586 299.339 376.853 301.008 377.278C301.008 377.278 358.255 391.63 378.772 396.756C381.833 397.517 382.77 401.442 380.353 403.492C347.183 431.669 305.328 449.989 259.417 453.841ZM455.071 260.076C451.029 304.552 433.28 345.133 406.084 377.6C404.049 380.031 400.109 379.123 399.333 376.048C394.134 355.545 379.621 298.548 379.621 298.548C379.182 296.834 379.958 295.048 381.496 294.184L449.286 256.327C452.025 254.804 455.364 256.957 455.071 260.076ZM449.198 224.504L381.393 185.124C379.885 184.246 379.138 182.488 379.577 180.789L398.967 104.725C399.743 101.664 403.683 100.741 405.718 103.158C433.06 135.61 450.941 176.235 455.056 220.77C455.349 223.918 451.937 226.086 449.213 224.489L449.198 224.504Z" fill="#363636"/>
</svg>
