<svg width="275" height="275" viewBox="0 0 275 275" fill="none" xmlns="http://www.w3.org/2000/svg">
<path d="M208.419 44.815C199.189 35.0915 188.132 27.3535 175.907 22.06C163.681 16.7666 150.534 14.0257 137.248 14C110.503 14 84.9119 25.1167 66.0761 44.815C31.4448 81.0604 31.6505 124.469 47.6518 163.412C63.4931 201.925 95.0042 237.077 125.304 259.974C128.756 262.588 132.944 264 137.248 264C141.551 264 145.74 262.588 149.191 259.974C179.48 237.077 211.002 201.925 226.843 163.412C242.845 124.481 243.05 81.0604 208.419 44.815Z" fill="#A4B7AA"/>
<path d="M138 38C96.6443 38 63 71.6428 63 113C63 154.357 96.6443 188 138 188C179.355 188 213 154.353 213 113C213 71.6471 179.355 38 138 38ZM144.072 46.5727C157.888 47.8235 170.502 53.3058 180.607 61.7051C181.367 62.3396 181.081 63.5767 180.125 63.814L156.568 69.7439C156.049 69.876 155.507 69.6479 155.234 69.1868L142.93 48.4078C142.425 47.5587 143.094 46.486 144.077 46.5727H144.072ZM99.4803 102.314C99.7442 102.159 99.9901 101.99 100.227 101.812L108.279 105.144C107.615 107.654 107.255 110.288 107.255 113.005C107.255 115.479 107.556 117.884 108.111 120.194L100.122 123.526C99.8763 123.348 99.6214 123.175 99.3482 123.024L83.2203 113.949C82.4055 113.488 82.3918 112.315 83.2021 111.84L99.4757 102.318L99.4803 102.314ZM100.049 73.4185L119.086 78.3849L122.45 86.492C117.921 89.158 114.133 92.9514 111.475 97.4886L103.35 94.129C103.313 93.8962 103.268 93.6633 103.208 93.4305L98.5699 74.8929C98.3467 73.9983 99.157 73.19 100.049 73.4229V73.4185ZM98.5699 150.454L103.195 131.967C103.263 131.697 103.309 131.428 103.35 131.159L111.129 127.913C113.747 132.615 117.557 136.559 122.154 139.339L118.99 147.026C118.74 147.067 118.49 147.113 118.239 147.181L100.049 151.924C99.1617 152.157 98.3467 151.349 98.5699 150.454ZM115.531 113C115.531 100.62 125.609 90.55 138 90.55C150.391 90.55 160.469 100.62 160.469 113C160.469 125.38 150.391 135.454 138 135.454C125.609 135.454 115.531 125.38 115.531 113ZM152.862 86.0902L156.012 78.4351C156.044 78.426 156.076 78.4214 156.113 78.417L175.914 73.4322C176.802 73.2084 177.608 74.0164 177.38 74.911L172.682 93.3987C172.646 93.5402 172.623 93.6771 172.596 93.8186L164.389 97.2423C161.598 92.5908 157.615 88.7334 152.862 86.0949V86.0902ZM164.648 128.31L172.614 131.606C172.641 131.739 172.664 131.871 172.696 132.003L177.38 150.441C177.608 151.331 176.802 152.143 175.914 151.919L156.113 146.939C156.054 146.926 155.999 146.917 155.94 146.903L153.008 139.832C157.847 137.111 161.876 133.122 164.648 128.315V128.31ZM176.547 123.011C176.142 123.239 175.759 123.499 175.409 123.787L167.784 120.632C168.408 118.19 168.745 115.634 168.745 113.005C168.745 110.188 168.358 107.467 167.648 104.875L175.422 101.634C175.737 101.885 176.069 102.122 176.424 102.327L192.761 111.84C193.572 112.315 193.563 113.493 192.743 113.949L176.551 123.015L176.547 123.011ZM139.024 58.0761L148.706 74.4272L145.142 83.096C142.848 82.548 140.458 82.2513 138 82.2513C135.264 82.2513 132.61 82.6166 130.084 83.2877L126.72 75.1896L136.939 58.0715C137.408 57.2818 138.551 57.2864 139.02 58.0715L139.024 58.0761ZM95.4516 61.6594C105.544 53.2876 118.13 47.8281 131.919 46.5773C132.902 46.486 133.571 47.5633 133.066 48.4124L120.593 69.3009C120.315 69.7619 119.769 69.9857 119.25 69.8533L95.925 63.7684C94.9739 63.5219 94.6916 62.2894 95.4516 61.6594ZM71.5625 106.81C72.8461 92.9377 78.3951 80.2838 86.8847 70.1728C87.5175 69.415 88.7465 69.7071 88.9832 70.6659L94.9101 94.3572C95.0419 94.8821 94.81 95.4301 94.3457 95.6994L73.3787 107.965C72.5275 108.462 71.4668 107.787 71.5579 106.805L71.5625 106.81ZM88.2959 157.452C78.9869 147.062 72.8826 133.742 71.5534 119.071C71.4668 118.099 72.5047 117.423 73.356 117.903L94.3136 129.698C94.7917 129.967 95.0282 130.52 94.8965 131.054L88.3505 157.21C88.3323 157.292 88.3141 157.37 88.2959 157.452ZM94.8418 163.829C94.0951 163.195 94.373 161.976 95.3242 161.729C101.638 160.091 119.25 155.498 119.25 155.498C119.769 155.362 120.315 155.585 120.593 156.051C120.593 156.051 130.093 171.95 133.498 177.633C134.003 178.482 133.343 179.55 132.36 179.468C118.121 178.272 105.138 172.584 94.8371 163.834L94.8418 163.829ZM136.944 167.275L127.121 150.828C126.979 150.591 126.825 150.367 126.661 150.148L129.756 142.621C132.383 143.351 135.141 143.753 138 143.753C140.517 143.753 142.962 143.443 145.306 142.868L148.67 150.979L139.024 167.271C138.555 168.061 137.417 168.065 136.944 167.271V167.275ZM143.635 179.464C142.652 179.546 141.988 178.478 142.493 177.629C145.861 171.964 155.229 156.156 155.229 156.156C155.503 155.695 156.044 155.466 156.563 155.599C156.563 155.599 174.358 160.072 180.735 161.67C181.686 161.907 181.978 163.131 181.226 163.77C170.916 172.553 157.906 178.263 143.635 179.464ZM204.451 119.067C203.195 132.93 197.678 145.579 189.224 155.699C188.592 156.457 187.367 156.174 187.126 155.215C185.51 148.825 180.999 131.058 180.999 131.058C180.862 130.524 181.104 129.967 181.582 129.698L202.653 117.898C203.504 117.423 204.542 118.094 204.451 119.067ZM202.626 107.979L181.55 95.7037C181.081 95.4301 180.849 94.8821 180.985 94.3525L187.012 70.6431C187.253 69.689 188.478 69.4013 189.111 70.1547C197.609 80.2701 203.167 92.933 204.447 106.815C204.538 107.796 203.477 108.472 202.63 107.974L202.626 107.979Z" fill="white"/>
</svg>
